<?xml version="1.0" standalone="no"?>
<!DOCTYPE svg PUBLIC "-//W3C//DTD SVG 20010904//EN"
 "http://www.w3.org/TR/2001/REC-SVG-20010904/DTD/svg10.dtd">
<svg version="1.0" xmlns="http://www.w3.org/2000/svg"
 width="800.000000pt" height="800.000000pt" viewBox="0 0 800.000000 800.000000"
 preserveAspectRatio="xMidYMid meet">
<metadata>
Created by potrace 1.11, written by Peter Selinger 2001-2013
</metadata>
<g transform="translate(0.000000,800.000000) scale(0.100000,-0.100000)"
fill="#000000" stroke="none">
<path d="M2712 6081 c-210 -52 -394 -202 -487 -395 -75 -157 -70 -59 -70
-1426 0 -1374 -5 -1273 74 -1435 74 -150 188 -264 336 -335 168 -80 71 -75
1430 -75 1115 0 1215 1 1277 17 287 74 496 291 553 574 14 70 15 212 13 1289
l-3 1210 -23 70 c-72 214 -200 362 -397 456 -148 72 -84 69 -1425 68 -1125 0
-1210 -2 -1278 -18z"/>
<path d="M3400 2037 c-3 -3 -71 -7 -150 -8 -80 -1 -176 -6 -215 -10 -38 -5
-88 -10 -110 -13 -43 -5 -95 -25 -95 -36 0 -11 52 -31 95 -36 22 -3 72 -8 110
-13 108 -13 310 -16 940 -16 630 0 832 3 940 16 39 5 88 10 110 13 43 5 95 25
95 36 0 18 -61 34 -165 45 -38 3 -88 8 -110 11 -60 7 -1439 17 -1445 11z"/>
</g>
</svg>
